<?xml version="1.0" encoding="UTF-8" standalone="no"?>
<svg
   xmlns:dc="http://purl.org/dc/elements/1.1/"
   xmlns:cc="http://creativecommons.org/ns#"
   xmlns:rdf="http://www.w3.org/1999/02/22-rdf-syntax-ns#"
   xmlns:svg="http://www.w3.org/2000/svg"
   xmlns="http://www.w3.org/2000/svg"
   xmlns:sodipodi="http://sodipodi.sourceforge.net/DTD/sodipodi-0.dtd"
   xmlns:inkscape="http://www.inkscape.org/namespaces/inkscape"
   viewBox="0 0 512 512"
   version="1.1"
   id="svg4"
   sodipodi:docname="envelope.svg"
   inkscape:export-filename="C:\Users\billg\Documents\Side Projects\pblpbl1024\assets\envelope.png"
   inkscape:export-xdpi="6"
   inkscape:export-ydpi="6"
   inkscape:version="1.0.2-2 (e86c870879, 2021-01-15)">
  <metadata
     id="metadata10">
    <rdf:RDF>
      <cc:Work
         rdf:about="">
        <dc:format>image/svg+xml</dc:format>
        <dc:type
           rdf:resource="http://purl.org/dc/dcmitype/StillImage" />
      </cc:Work>
    </rdf:RDF>
  </metadata>
  <defs
     id="defs8" />
  <sodipodi:namedview
     pagecolor="#ffffff"
     bordercolor="#666666"
     borderopacity="1"
     objecttolerance="10"
     gridtolerance="10"
     guidetolerance="10"
     inkscape:pageopacity="0"
     inkscape:pageshadow="2"
     inkscape:window-width="1920"
     inkscape:window-height="1001"
     id="namedview6"
     showgrid="false"
     inkscape:zoom="1.6210938"
     inkscape:cx="256"
     inkscape:cy="256"
     inkscape:window-x="-9"
     inkscape:window-y="-9"
     inkscape:window-maximized="1"
     inkscape:current-layer="svg4" />
  <!-- Font Awesome Free 5.15.3 by @fontawesome - https://fontawesome.com License - https://fontawesome.com/license/free (Icons: CC BY 4.0, Fonts: SIL OFL 1.1, Code: MIT License) -->
  <path
     d="m 305.26,242.96 c 0.78,-0.62 1.94,-0.04 1.94,0.94 v 40.9 c 0,5.3 -4.3,9.6 -9.6,9.6 h -83.2 c -5.3,0 -9.6,-4.3 -9.6,-9.6 v -40.88 c 0,-1 1.14,-1.56 1.94,-0.94 4.48,3.48 10.42,7.9 30.82,22.72 4.22,3.08 11.34,9.56 18.44,9.52 7.14,0.06 14.4,-6.56 18.46,-9.52 20.4,-14.82 26.32,-19.26 30.8,-22.74 z M 256,268.8 c 4.64,0.08 11.32,-5.84 14.68,-8.28 26.54,-19.26 28.56,-20.94 34.68,-25.74 1.16,-0.9 1.84,-2.3 1.84,-3.78 v -3.8 c 0,-5.3 -4.3,-9.6 -9.6,-9.6 h -83.2 c -5.3,0 -9.6,4.3 -9.6,9.6 v 3.8 c 0,1.48 0.68,2.86 1.84,3.78 6.12,4.78 8.14,6.48 34.68,25.74 3.36,2.44 10.04,8.36 14.68,8.28 z"
     id="path2"
     style="stroke-width:0.2" />
</svg>
