<?xml version="1.0" encoding="UTF-8" standalone="no"?>
<svg
   xmlns:dc="http://purl.org/dc/elements/1.1/"
   xmlns:cc="http://creativecommons.org/ns#"
   xmlns:rdf="http://www.w3.org/1999/02/22-rdf-syntax-ns#"
   xmlns:svg="http://www.w3.org/2000/svg"
   xmlns="http://www.w3.org/2000/svg"
   xmlns:sodipodi="http://sodipodi.sourceforge.net/DTD/sodipodi-0.dtd"
   xmlns:inkscape="http://www.inkscape.org/namespaces/inkscape"
   viewBox="0 0 496 512"
   version="1.1"
   id="svg4"
   sodipodi:docname="github.svg"
   inkscape:version="1.0.2-2 (e86c870879, 2021-01-15)">
  <metadata
     id="metadata10">
    <rdf:RDF>
      <cc:Work
         rdf:about="">
        <dc:format>image/svg+xml</dc:format>
        <dc:type
           rdf:resource="http://purl.org/dc/dcmitype/StillImage" />
      </cc:Work>
    </rdf:RDF>
  </metadata>
  <defs
     id="defs8" />
  <sodipodi:namedview
     pagecolor="#ffffff"
     bordercolor="#666666"
     borderopacity="1"
     objecttolerance="10"
     gridtolerance="10"
     guidetolerance="10"
     inkscape:pageopacity="0"
     inkscape:pageshadow="2"
     inkscape:window-width="1920"
     inkscape:window-height="1001"
     id="namedview6"
     showgrid="false"
     inkscape:zoom="0.5"
     inkscape:cx="248"
     inkscape:cy="256"
     inkscape:window-x="-9"
     inkscape:window-y="-9"
     inkscape:window-maximized="1"
     inkscape:current-layer="svg4" />
  <!-- Font Awesome Free 5.15.3 by @fontawesome - https://fontawesome.com License - https://fontawesome.com/license/free (Icons: CC BY 4.0, Fonts: SIL OFL 1.1, Code: MIT License) -->
  <path
     d="m 231.58,279.32297 c 0,0.4 -0.46,0.72 -1.04,0.72 -0.66,0.06 -1.12,-0.26 -1.12,-0.72 0,-0.4 0.46,-0.72 1.04,-0.72 0.6,-0.06 1.12,0.26 1.12,0.72 z m -6.22,-0.9 c -0.14,0.4 0.26,0.86 0.86,0.98 0.52,0.2 1.12,0 1.24,-0.4 0.12,-0.4 -0.26,-0.86 -0.86,-1.04 -0.52,-0.14 -1.1,0.06 -1.24,0.46 z m 8.84,-0.34 c -0.58,0.14 -0.98,0.52 -0.92,0.98 0.06,0.4 0.58,0.66 1.18,0.52 0.58,-0.14 0.98,-0.52 0.92,-0.92 -0.06,-0.38 -0.6,-0.64 -1.18,-0.58 z m 13.16,-76.64 c -27.74,0 -48.96,21.06 -48.96,48.8 0,22.18 13.96,41.16 33.9,47.84 2.56,0.46 3.46,-1.12 3.46,-2.42 0,-1.24 -0.06,-8.08 -0.06,-12.28 0,0 -14,3 -16.94,-5.96 0,0 -2.28,-5.82 -5.56,-7.32 0,0 -4.58,-3.14 0.32,-3.08 0,0 4.98,0.4 7.72,5.16 4.38,7.72 11.72,5.5 14.58,4.18 0.46,-3.2 1.76,-5.42 3.2,-6.74 -11.18,-1.24 -22.46,-2.86 -22.46,-22.1 0,-5.5 1.52,-8.26 4.72,-11.78 -0.52,-1.3 -2.22,-6.66 0.52,-13.58 4.18,-1.3 13.8,5.4 13.8,5.4 4,-1.12 8.3,-1.7 12.56,-1.7 4.26,0 8.56,0.58 12.56,1.7 0,0 9.62,-6.72 13.8,-5.4 2.74,6.94 1.04,12.28 0.52,13.58 3.2,3.54 5.16,6.3 5.16,11.78 0,19.3 -11.78,20.84 -22.96,22.1 1.84,1.58 3.4,4.58 3.4,9.28 0,6.74 -0.06,15.08 -0.06,16.72 0,1.3 0.92,2.88 3.46,2.42 20,-6.64 33.56,-25.62 33.56,-47.8 0,-27.74 -22.5,-48.8 -50.24,-48.8 z m -29.52,68.98 c -0.26,0.2 -0.2,0.66 0.14,1.04 0.32,0.32 0.78,0.46 1.04,0.2 0.26,-0.2 0.2,-0.66 -0.14,-1.04 -0.32,-0.32 -0.78,-0.46 -1.04,-0.2 z m -2.16,-1.62 c -0.14,0.26 0.06,0.58 0.46,0.78 0.32,0.2 0.72,0.14 0.86,-0.14 0.14,-0.26 -0.06,-0.58 -0.46,-0.78 -0.4,-0.12 -0.72,-0.06 -0.86,0.14 z m 6.48,7.12 c -0.32,0.26 -0.2,0.86 0.26,1.24 0.46,0.46 1.04,0.52 1.3,0.2 0.26,-0.26 0.14,-0.86 -0.26,-1.24 -0.44,-0.46 -1.04,-0.52 -1.3,-0.2 z m -2.28,-2.94 c -0.32,0.2 -0.32,0.72 0,1.18 0.32,0.46 0.86,0.66 1.12,0.46 0.32,-0.26 0.32,-0.78 0,-1.24 -0.28,-0.46 -0.8,-0.66 -1.12,-0.4 z"
     id="path2"
     style="stroke-width:0.2" />
</svg>
