<?xml version="1.0" encoding="UTF-8" standalone="no"?>
<svg
   xmlns:dc="http://purl.org/dc/elements/1.1/"
   xmlns:cc="http://creativecommons.org/ns#"
   xmlns:rdf="http://www.w3.org/1999/02/22-rdf-syntax-ns#"
   xmlns:svg="http://www.w3.org/2000/svg"
   xmlns="http://www.w3.org/2000/svg"
   xmlns:sodipodi="http://sodipodi.sourceforge.net/DTD/sodipodi-0.dtd"
   xmlns:inkscape="http://www.inkscape.org/namespaces/inkscape"
   viewBox="0 0 448 512"
   version="1.1"
   id="svg4"
   sodipodi:docname="linkedin.svg"
   inkscape:version="1.0.2-2 (e86c870879, 2021-01-15)">
  <metadata
     id="metadata10">
    <rdf:RDF>
      <cc:Work
         rdf:about="">
        <dc:format>image/svg+xml</dc:format>
        <dc:type
           rdf:resource="http://purl.org/dc/dcmitype/StillImage" />
      </cc:Work>
    </rdf:RDF>
  </metadata>
  <defs
     id="defs8" />
  <sodipodi:namedview
     pagecolor="#ffffff"
     bordercolor="#666666"
     borderopacity="1"
     objecttolerance="10"
     gridtolerance="10"
     guidetolerance="10"
     inkscape:pageopacity="0"
     inkscape:pageshadow="2"
     inkscape:window-width="1920"
     inkscape:window-height="1001"
     id="namedview6"
     showgrid="false"
     inkscape:zoom="1.6210938"
     inkscape:cx="224"
     inkscape:cy="256"
     inkscape:window-x="-9"
     inkscape:window-y="-9"
     inkscape:window-maximized="1"
     inkscape:current-layer="svg4" />
  <!-- Font Awesome Free 5.15.3 by @fontawesome - https://fontawesome.com License - https://fontawesome.com/license/free (Icons: CC BY 4.0, Fonts: SIL OFL 1.1, Code: MIT License) -->
  <path
     d="m 262.4,211.2 h -76.82 c -3.52,0 -6.38,2.9 -6.38,6.46 v 76.68 c 0,3.56 2.86,6.46 6.38,6.46 h 76.82 c 3.52,0 6.4,-2.9 6.4,-6.46 v -76.68 c 0,-3.56 -2.88,-6.46 -6.4,-6.46 z M 206.28,288 H 193 v -42.76 h 13.3 V 288 Z m -6.64,-48.6 c -4.26,0 -7.7,-3.46 -7.7,-7.7 0,-4.24 3.44,-7.7 7.7,-7.7 4.24,0 7.7,3.46 7.7,7.7 0,4.26 -3.44,7.7 -7.7,7.7 z m 56.42,48.6 h -13.28 v -20.8 c 0,-4.96 -0.1,-11.34 -6.9,-11.34 -6.92,0 -7.98,5.4 -7.98,10.98 V 288 h -13.28 v -42.76 h 12.74 v 5.84 h 0.18 c 1.78,-3.36 6.12,-6.9 12.58,-6.9 13.44,0 15.94,8.86 15.94,20.38 z"
     id="path2"
     style="stroke-width:0.2" />
</svg>
